<?xml version="1.0" encoding="UTF-8" standalone="no"?>
<!-- Uploaded to: SVG Repo, www.svgrepo.com, Generator: SVG Repo Mixer Tools -->

<svg
   width="800px"
   height="800px"
   viewBox="0 0 24 24"
   version="1.1"
   id="svg46"
   sodipodi:docname="arcgis-online-svgrepo-com.svg"
   inkscape:version="1.2.2 (b0a84865, 2022-12-01)"
   xmlns:inkscape="http://www.inkscape.org/namespaces/inkscape"
   xmlns:sodipodi="http://sodipodi.sourceforge.net/DTD/sodipodi-0.dtd"
   xmlns="http://www.w3.org/2000/svg"
   xmlns:svg="http://www.w3.org/2000/svg">
  <defs
     id="defs50" />
  <sodipodi:namedview
     id="namedview48"
     pagecolor="#505050"
     bordercolor="#ffffff"
     borderopacity="1"
     inkscape:showpageshadow="0"
     inkscape:pageopacity="0"
     inkscape:pagecheckerboard="1"
     inkscape:deskcolor="#505050"
     showgrid="false"
     inkscape:zoom="0.295"
     inkscape:cx="400"
     inkscape:cy="400"
     inkscape:window-width="1309"
     inkscape:window-height="456"
     inkscape:window-x="0"
     inkscape:window-y="38"
     inkscape:window-maximized="0"
     inkscape:current-layer="svg46" />
  <path
     d="M24 12a4.99 4.99 0 0 1-2.15 4.101l-.85-.495v-.163a3.974 3.974 0 0 0-1.377-7.377l-.79-.124-.052-.798a5.293 5.293 0 0 0-10.214-1.57L8.17 6.59l-.977-.483A2.277 2.277 0 0 0 6.19 5.87a2.18 2.18 0 0 0-1.167.339 2.206 2.206 0 0 0-.98 1.395l-.113.505-.476.2A4 4 0 0 0 5 16h2v1H5a5 5 0 0 1-1.934-9.611 3.21 3.21 0 0 1 1.422-2.025 3.17 3.17 0 0 1 1.702-.493 3.269 3.269 0 0 1 1.446.34 6.293 6.293 0 0 1 12.143 1.867A4.988 4.988 0 0 1 24 12zm-5.437 7.5l-4.016 2.342-4.015-2.342.587-.342-.993-.579-1.578.92 6 3.501 6-3.5-1.579-.92-.992.578zm1.985-3l-1.579-.92-.992.578.586.342-4.016 2.342-4.015-2.342.587-.342-.993-.579-1.578.921 6 3.5zm-12-3l6-3.5 6 3.5-6 3.5zm6 2.342l4.015-2.342-4.016-2.343-4.015 2.343z"
     id="path42"
     style="fill:#003399;fill-opacity:1" />
  <path
     fill="none"
     d="M0 0h24v24H0z"
     id="path44" />
</svg>
