<?xml version="1.0" encoding="UTF-8" standalone="no"?>
<svg
   version="1.0"
   width="220.000000pt"
   height="220.000000pt"
   viewBox="0 0 220.000000 220.000000"
   preserveAspectRatio="xMidYMid meet"
   id="svg62"
   sodipodi:docname="ArcGIS-Enterprise.svg"
   inkscape:version="1.2.2 (b0a84865, 2022-12-01)"
   xmlns:inkscape="http://www.inkscape.org/namespaces/inkscape"
   xmlns:sodipodi="http://sodipodi.sourceforge.net/DTD/sodipodi-0.dtd"
   xmlns:xlink="http://www.w3.org/1999/xlink"
   xmlns="http://www.w3.org/2000/svg"
   xmlns:svg="http://www.w3.org/2000/svg">
  <defs
     id="defs66">
    <linearGradient
       inkscape:collect="always"
       id="linearGradient7050">
      <stop
         style="stop-color:#7144da;stop-opacity:1;"
         offset="0.66891891"
         id="stop7046" />
      <stop
         style="stop-color:#7144da;stop-opacity:0;"
         offset="1"
         id="stop7048" />
    </linearGradient>
    <linearGradient
       inkscape:collect="always"
       xlink:href="#linearGradient7050"
       id="linearGradient7052"
       x1="139"
       y1="1100"
       x2="2061"
       y2="1100"
       gradientUnits="userSpaceOnUse" />
  </defs>
  <sodipodi:namedview
     id="namedview64"
     pagecolor="#505050"
     bordercolor="#ffffff"
     borderopacity="1"
     inkscape:showpageshadow="0"
     inkscape:pageopacity="0"
     inkscape:pagecheckerboard="1"
     inkscape:deskcolor="#505050"
     inkscape:document-units="pt"
     showgrid="false"
     inkscape:zoom="0.80454545"
     inkscape:cx="76.440678"
     inkscape:cy="148.53107"
     inkscape:window-width="1366"
     inkscape:window-height="623"
     inkscape:window-x="30"
     inkscape:window-y="279"
     inkscape:window-maximized="0"
     inkscape:current-layer="svg62"
     showguides="false" />
  <g
     transform="translate(0.000000,220.000000) scale(0.100000,-0.100000)"
     fill="#000000"
     stroke="none"
     id="g60"
     style="fill:url(#linearGradient7052);fill-opacity:1;stroke-width:0;stroke-dasharray:none;opacity:0.88;fill-rule:evenodd">
    <path
       d="M1005 2164 c-44 -19 -231 -101 -415 -180 -352 -153 -380 -169 -423 -249 -22 -40 -22 -46 -25 -681 l-3 -641 68 -30 c298 -133 882 -383 894 -383 8 0 198 81 423 178 429 187 468 209 509 285 l22 42 3 641 3 640 -28 13 c-150 69 -924 401 -934 401 -8 0 -50 -16 -94 -36z m389 -560 c160 -92 299 -174 309 -182 16 -14 17 -44 17 -357 0 -306 -2 -344 -16 -356 -45 -37 -591 -339 -609 -337 -11 2 -154 80 -317 173 l-298 170 0 350 0 351 91 52 c50 29 100 52 111 52 26 0 568 -315 590 -343 13 -16 18 -41 18 -94 0 -86 -12 -104 -110 -162 l-65 -39 -3 88 -3 88 -236 136 c-130 75 -240 136 -244 136 -5 0 -9 -99 -9 -220 0 -170 3 -227 14 -248 10 -19 70 -59 207 -137 192 -109 194 -110 260 -110 65 0 66 0 265 114 109 63 202 119 206 125 12 17 9 356 -3 399 -5 21 -22 51 -37 67 -15 16 -151 100 -302 186 -151 86 -279 160 -284 164 -6 6 136 99 153 100 2 0 135 -75 295 -166z"
       id="path58"
       style="fill:url(#linearGradient7052);fill-opacity:1;stroke-width:0;stroke-dasharray:none;fill-rule:evenodd" />
  </g>
</svg>
