<?xml version="1.0" encoding="UTF-8" standalone="no"?>
<!-- Uploaded to: SVG Repo, www.svgrepo.com, Generator: SVG Repo Mixer Tools -->

<svg
   fill="#000000"
   height="800px"
   width="800px"
   version="1.1"
   id="Capa_1"
   viewBox="0 0 47 47"
   xml:space="preserve"
   sodipodi:docname="microsoft-svgrepo-com.svg"
   inkscape:version="1.2.2 (b0a84865, 2022-12-01)"
   xmlns:inkscape="http://www.inkscape.org/namespaces/inkscape"
   xmlns:sodipodi="http://sodipodi.sourceforge.net/DTD/sodipodi-0.dtd"
   xmlns:xlink="http://www.w3.org/1999/xlink"
   xmlns="http://www.w3.org/2000/svg"
   xmlns:svg="http://www.w3.org/2000/svg"><defs
   id="defs12576"><linearGradient
     inkscape:collect="always"
     id="linearGradient13811"><stop
       style="stop-color:#000000;stop-opacity:0;"
       offset="0"
       id="stop13809" /><stop
       style="stop-color:#000000;stop-opacity:1;"
       offset="1"
       id="stop13807" /></linearGradient><linearGradient
     inkscape:collect="always"
     xlink:href="#linearGradient13811"
     id="linearGradient13813"
     x1="0.952"
     y1="23.500129"
     x2="46.048"
     y2="23.500129"
     gradientUnits="userSpaceOnUse" /></defs><sodipodi:namedview
   id="namedview12574"
   pagecolor="#505050"
   bordercolor="#ffffff"
   borderopacity="1"
   inkscape:showpageshadow="0"
   inkscape:pageopacity="0"
   inkscape:pagecheckerboard="1"
   inkscape:deskcolor="#505050"
   showgrid="false"
   inkscape:zoom="0.295"
   inkscape:cx="-184.74576"
   inkscape:cy="400"
   inkscape:window-width="1396"
   inkscape:window-height="456"
   inkscape:window-x="0"
   inkscape:window-y="38"
   inkscape:window-maximized="0"
   inkscape:current-layer="Capa_1" />
<g
   id="g12571"
   style="fill-opacity:1;fill:#000000">
	<g
   id="g12569"
   style="fill-opacity:1;fill:#000000">
		<path
   d="M45.707,0.248c-0.217-0.19-0.504-0.277-0.792-0.239l-20.096,2.69c-0.497,0.066-0.867,0.49-0.867,0.991v17.592    c0,0.552,0.448,1,1,1h20.096c0.552,0,1-0.448,1-1V1C46.048,0.711,45.924,0.437,45.707,0.248z M44.048,20.282H25.952V4.565    l18.096-2.422V20.282z"
   id="path12561"
   style="fill-opacity:1;fill:#000000" />
		<path
   d="M20.952,24.336c0,0-0.001,0-0.002,0L2.046,24.375c-0.552,0.001-0.998,0.449-0.998,1v15.001    c0,0.503,0.374,0.928,0.873,0.992l18.904,2.406c0.043,0.005,0.085,0.008,0.127,0.008c0.242,0,0.478-0.088,0.661-0.25    c0.215-0.19,0.339-0.463,0.339-0.75V25.336c0-0.266-0.105-0.52-0.294-0.708C21.471,24.441,21.216,24.336,20.952,24.336z     M19.952,41.647L3.048,39.495V26.373l16.904-0.035V41.647z"
   id="path12563"
   style="fill-opacity:1;fill:#000000" />
		<path
   d="M20.824,3.187l-19,2.445C1.325,5.697,0.952,6.122,0.952,6.624v14.658c0,0.552,0.448,1,1,1h19c0.552,0,1-0.448,1-1V4.179    c0-0.288-0.124-0.561-0.339-0.751S21.108,3.15,20.824,3.187z M19.952,20.282h-17V7.504l17-2.188V20.282z"
   id="path12565"
   style="fill-opacity:1;fill:#000000" />
		<path
   d="M45.05,24.375l-20.096-0.028c0,0-0.001,0-0.001,0c-0.265,0-0.519,0.105-0.706,0.292c-0.188,0.188-0.293,0.442-0.293,0.708    v17.935c0,0.5,0.37,0.924,0.866,0.991l20.096,2.718C44.959,46.997,45.004,47,45.048,47c0.241,0,0.475-0.087,0.658-0.247    c0.217-0.19,0.342-0.464,0.342-0.753V25.375C46.048,24.823,45.601,24.376,45.05,24.375z M44.048,44.855l-18.096-2.447v-16.06    l18.096,0.025V44.855z"
   id="path12567"
   style="fill-opacity:1;fill:#000000" />
	</g>
</g>
</svg>
