<?xml version="1.0" encoding="UTF-8" standalone="no"?>
<!-- Uploaded to: SVG Repo, www.svgrepo.com, Generator: SVG Repo Mixer Tools -->

<svg
   fill="#000000"
   width="800px"
   height="800px"
   viewBox="0 0 32 32"
   version="1.1"
   id="svg10980"
   sodipodi:docname="redhat-svgrepo-com.svg"
   inkscape:version="1.2.2 (b0a84865, 2022-12-01)"
   xmlns:inkscape="http://www.inkscape.org/namespaces/inkscape"
   xmlns:sodipodi="http://sodipodi.sourceforge.net/DTD/sodipodi-0.dtd"
   xmlns="http://www.w3.org/2000/svg"
   xmlns:svg="http://www.w3.org/2000/svg">
  <defs
     id="defs10984" />
  <sodipodi:namedview
     id="namedview10982"
     pagecolor="#505050"
     bordercolor="#ffffff"
     borderopacity="1"
     inkscape:showpageshadow="0"
     inkscape:pageopacity="0"
     inkscape:pagecheckerboard="1"
     inkscape:deskcolor="#505050"
     showgrid="false"
     inkscape:zoom="0.295"
     inkscape:cx="401.69492"
     inkscape:cy="400"
     inkscape:window-width="1309"
     inkscape:window-height="456"
     inkscape:window-x="0"
     inkscape:window-y="38"
     inkscape:window-maximized="0"
     inkscape:current-layer="svg10980" />
  <title
     id="title10976">redhat</title>
  <path
     d="M26.135 15.933c0.136 0.467 0.233 1.011 0.271 1.572l0.001 0.024c0 2.206-2.479 3.43-5.74 3.43-7.367 0.005-13.821-4.313-13.821-7.165 0-0.002 0-0.004 0-0.005 0-0.416 0.087-0.811 0.245-1.169l-0.007 0.019c-2.648 0.132-6.080 0.606-6.080 3.634 0 4.96 11.753 11.073 21.058 11.073 7.135 0 8.934-3.227 8.934-5.773 0-2.006-1.733-4.28-4.857-5.638zM21.010 17.732c1.971 0 4.824-0.407 4.824-2.752 0.001-0.020 0.001-0.043 0.001-0.067 0-0.167-0.019-0.33-0.054-0.486l0.003 0.015-1.175-5.099c-0.27-1.122-0.507-1.631-2.477-2.615-1.684-0.889-3.637-1.604-5.692-2.045l-0.151-0.027c-0.916 0-1.183 1.182-2.277 1.182-1.052 0-1.833-0.882-2.818-0.882-0.946 0-1.562 0.644-2.037 1.969 0 0-1.325 3.736-1.496 4.279-0.023 0.080-0.036 0.172-0.036 0.267 0 0.014 0 0.028 0.001 0.042l-0-0.002c0 1.452 5.72 6.216 13.384 6.216z"
     id="path10978"
     style="fill:#cc0000" />
</svg>
